<svg xmlns="http://www.w3.org/2000/svg" xml:space="preserve" id="Livello_1" x="0" y="0" version="1.1" viewBox="0 0 1442.2 817.3"><style>.st0{fill:#fc3;stroke:#000;stroke-width:.25;stroke-miterlimit:10}.st1{fill:#00116a}.st2{fill:#fff}.st3{fill:#fc3}</style><path d="M757.3 333.2h21.6c2.6 0 4.7 2.1 4.7 4.7v165.6c0 2.6-2.1 4.7-4.7 4.7h-21.6c-2.6 0-4.7-2.1-4.7-4.7V337.8c0-2.5 2.1-4.6 4.7-4.6z" class="st0"/><circle cx="842.5" cy="509.9" r="37" class="st1"/><circle cx="622.5" cy="509.4" r="37" class="st1"/><ellipse cx="621.5" cy="509.9" class="st2" rx="22" ry="22.5"/><ellipse cx="842.5" cy="509.9" class="st2" rx="22" ry="22.5"/><path d="M676.8 508.6c.1-4.2-.3-11.2-3.9-18.9-6.1-13.3-17.4-19.6-22.1-22.1-3.9-2.1-14.6-7.7-29.2-6.8-19 1.1-31 12.2-34.2 15.3-13.4 12.8-15.5 28.1-16 32.6-3.1-.3-7.9-.8-13.8-1.1-7.2-.4-8.2-.1-9.9-1.1-5.8-3.2-7.6-13.6-5-21.6 2.2-6.5 5.7-6.2 8.3-13.2 2.2-5.9 1.2-10 .6-18.4-.7-8.4.1-16.8 0-25.3V313.4c-.5-.7-3.9-5.5-2.2-11.6 2-6.9 8.8-9.3 9.4-9.5 66.5-.3 133.1-.7 199.6-1 6.7 0 12.2 5.2 12.2 11.6v194c-.3 2.3-1.1 5.5-3.6 8.2-4.7 5.1-12.4 4.8-24.6 4.5 0 0-17-.5-47.4-1.1-7.9-.1-14.3 0-18.2.1z" class="st0"/><path d="M929.6 507.7c-4.7.3-11.6.6-19.9.5-13.4-.2-15.6-1.3-16.8-2.1-7.3-4.7-3.6-12.9-10-24.1-8-14-23.8-18.5-27.3-19.4-12.5-3.2-22.7-.2-26.8 1-4.5 1.4-14.1 5.1-22.6 14.2-11.3 12.2-13.2 26.2-13.6 31-6.8 2.2-14 .6-18.5-4.1-4-4.1-4.5-9.3-4.5-10.9V335c-.5-6.4 2.4-12.2 7.3-14.6 3.3-1.6 6.6-1.2 8.1-.9 14.9-.1 29.9-.1 44.8-.2 2.3.6 5.7 1.9 9.4 4.2 7.4 4.7 10.9 10.8 16.8 20.5 11.3 18.6.5-.3 13.6 22 16 27.2 14.7 26 16.3 27.8 15.6 17.8 30.5 9.1 38.3 23.1 8 14.4 3.6 44.1 3.1 46.7-.3 2-1.1 7.9 2.1 13.1 1.9 3.1 4.5 5 6.4 6.1.8 2 1.9 5.2 1.7 9.2-.2 9-6.6 14.6-7.9 15.7z" class="st0"/><path d="m784 397.7-4-4v-51.2c0-2.2 1.8-4 4-4 15.6.5 31.1 1.1 46.7 1.6.5.4 1 .9 1.6 1.6 1.4 1.8 1.9 3.6 2.1 4.7 8.8 14.2 17.5 28.4 26.3 42.6 2.7 3 3.8 5.2 3.2 6.8-1.2 3.1-8.7 3.7-22.4 1.8H784z" class="st2"/><path d="M677.6 432.2c-9.4 3.3-18.7 6.6-28.1 9.9-10.9-3.8-21.9-7.6-32.9-11.4-11.4-4-22.7-8-34-12 .7-27.4 1.4-54.8 2.2-82.1 8.2-3.6 17.2-7.1 27-10.4 13.2-4.4 25.5-7.6 36.7-9.9 12 2.9 24.9 6.5 38.3 10.9q14.25 4.8 27 9.9c-.2 27-.4 54.1-.5 81.1-4.9 2.6-10.5 5.3-16.7 7.8-6.9 2.6-13.3 4.6-19 6.2" class="st1"/><path d="M455.3 353.2h71.5c4.8 0 8.8 3.9 8.8 8.8v.5c0 4.8-3.9 8.8-8.8 8.8h-71.5c-4.8 0-8.8-3.9-8.8-8.8v-.5c.1-4.9 4-8.8 8.8-8.8zm-28.4 41h86.5c5 0 9 4 9 9s-4 9-9 9h-86.5c-5 0-9-4-9-9s4-9 9-9zm43.8 41h60.7c4.5 0 8.1 3.6 8.1 8.1v1.7c0 4.5-3.6 8.1-8.1 8.1h-60.7c-4.5 0-8.1-3.6-8.1-8.1v-1.7c0-4.5 3.6-8.1 8.1-8.1z" class="st0"/><path d="m624.4 340.2 48.7-17.2c2.9-1 6.1.5 7.1 3.4s-.5 6.1-3.4 7.1l-48.7 17.2c-2.9 1-6.1-.5-7.1-3.4-1.1-2.9.5-6.1 3.4-7.1" class="st3"/><path d="M905.6 413.7h4c6.9 0 12.5 5.6 12.5 12.5v13c0 6.9-5.6 12.5-12.5 12.5h-4c-6.9 0-12.5-5.6-12.5-12.5v-13c0-7 5.6-12.5 12.5-12.5" class="st2"/><path d="M619.6 372.9v-25.6c0-2.3 1.9-4.2 4.2-4.2h3.6c2.3 0 4.2 1.9 4.2 4.2v25.6c0 2.3-1.9 4.2-4.2 4.2h-3.6c-2.3.1-4.2-1.8-4.2-4.2" class="st3"/><path d="M552.9 551.2v3.1c-1 .3-1.8.8-2.3 1.4s-.8 1.4-.8 2.3.2 1.7.7 2.3c.4.7 1.2 1.3 2.1 1.9.7.4 2.2 1.2 4.6 2.3 1.5.7 2.6 1.3 3.4 1.9s1.6 1.3 2.3 2.1c1.9 2.2 2.9 4.8 2.9 7.8 0 2.3-.5 4.4-1.6 6.3-1 1.9-2.5 3.4-4.3 4.5-1 .6-2 1-3.2 1.3s-2.2.5-3.3.5v-3c1.4-.4 2.4-.9 3.1-1.6q.9-1.05.9-2.7c0-1.2-.5-2.2-1.5-3.1-.7-.6-1.9-1.3-3.7-2.2-2-1-3.4-1.6-4.1-2s-1.5-.9-2.1-1.4c-3.1-2.4-4.6-5.5-4.6-9.5 0-2 .4-3.9 1.1-5.6.8-1.7 1.8-3.1 3.2-4.1 2-1.5 4.4-2.3 7.2-2.5m-1.3 34.7v3c-1.3 0-2.8-.4-4.4-1.2l-1.2-.6c-.2-.1-.4-.1-.7-.1s-.6.1-.7.2c-.2.1-.4.4-.8.9-.3.4-.6.6-1 .6-.9 0-1.4-.8-1.4-2.3v-9.7c0-.5.1-.9.4-1.3.3-.3.6-.5 1-.5s.6.1.8.3.4.7.5 1.3c.4 1.5.9 2.9 1.6 4.3.7 1.3 1.5 2.4 2.5 3.4 1.1.8 2.2 1.4 3.4 1.7m3.2-31.6v-2.9c1 .1 1.8.2 2.5.4s1.7.6 3 1.2c.3.1.6.2.8.2.3 0 .5-.1.7-.3l.5-.8c.3-.4.6-.6 1-.6s.8.2 1 .5.3.9.3 1.6v8.8c0 .5-.1.9-.4 1.3-.3.3-.6.5-1 .5q-.45 0-.9-.3c-.1-.1-.3-.3-.4-.5s-.2-.5-.3-1q-.3-1.35-.9-2.7c-.6-1.35-1-1.7-1.5-2.5-1.1-1.5-2.6-2.5-4.4-2.9m16.9 23.3v-20.8c0-.6-.1-1.1-.3-1.4q-.15-.3-.3-.3c-.15 0-.4-.2-.9-.4-.7-.2-1-.7-1-1.4 0-.5.2-.8.5-1s.8-.4 1.4-.4h12.1l.9.1c.3.1.5.2.7.5.2.2.3.5.3.8 0 .7-.3 1.2-1 1.4-.5.2-.8.3-.9.4q-.15 0-.3.3c-.2.3-.3.7-.3 1.4V579c0 1.5 0 2.6.1 3.1.1.6.2 1.1.5 1.6.2.4.4.8.7 1s.8.4 1.5.7v3.5h-.5c-2.1 0-3.9-.2-5.3-.6-1.6-.5-3.1-1.2-4.3-2.1s-2.1-2-2.6-3.2c-.7-1.2-1-3.1-1-5.4m15.8 11.3v-3.5c1.6-.2 3-1 4.1-2.2 1.2-1.4 1.9-3.4 1.9-6v-17.3c0-2.4-.9-4.1-2.6-5.1-.5-.3-.8-.5-1-.7s-.2-.5-.2-.9c0-.5.2-.8.5-1s.8-.3 1.5-.3h7c.2 0 .3.1.5.2.4.3.6.6.6 1.1 0 .4-.1.7-.4 1-.1.1-.4.3-1 .7-.7.4-1.3 1.1-1.7 1.9q-.6 1.35-.6 3v17.3c0 3-.6 5.4-1.8 7.3-.9 1.4-2.1 2.5-3.8 3.4-.9.6-1.9.9-3 1.1m29.2-37v31.2c0 .7.1 1.2.4 1.5.1.2.3.3.4.3s.5.2 1.1.3q1.2.3 1.2 1.5c0 .5-.2.8-.6 1.1q-.45.3-1.5.3h-12.3c-.6 0-1-.1-1.4-.4s-.5-.6-.5-1c0-.7.3-1.2 1-1.4.5-.2.8-.3.9-.4q.15 0 .3-.3c.2-.3.3-.7.3-1.4v-26.6c0-.6-.1-1.1-.3-1.4q-.15-.3-.3-.3c-.15 0-.4-.2-.9-.4-.7-.2-1-.7-1-1.4 0-.4.2-.8.5-1s.8-.4 1.4-.4h11.3zm2.1 22.4v-2.8q1.05-.3 1.5-.6c.3-.2.5-.5.7-.9.3-.7.5-1.6.5-2.8v-8.5c0-.8-.1-1.5-.2-1.9s-.3-.8-.7-1.1c-.5-.5-1.1-.8-1.9-.9v-2.9c3.3 0 5.8.3 7.4 1 1.8.8 3.3 2 4.4 3.7s1.6 3.7 1.6 6.2c0 2.7-.6 5-1.7 6.7s-2.6 3-4.6 3.8c-1.6.7-3.9 1-7 1m29.7-22.4v31.2c0 .7.1 1.2.4 1.5.1.2.3.3.4.3s.5.2 1.1.3q1.2.3 1.2 1.5c0 .5-.2.8-.6 1.1q-.45.3-1.5.3H637c-.6 0-1-.1-1.4-.4s-.5-.6-.5-1c0-.7.3-1.2 1-1.4.5-.2.8-.3.9-.4q.15 0 .3-.3c.2-.3.3-.7.3-1.4v-26.6c0-.6-.1-1.1-.3-1.4q-.15-.3-.3-.3c-.15 0-.4-.2-.9-.4-.7-.2-1-.7-1-1.4 0-.4.2-.8.5-1s.8-.4 1.4-.4h11.5zm2 22.4v-2.8q1.05-.3 1.5-.6c.3-.2.5-.5.7-.9.3-.7.5-1.6.5-2.8v-8.5c0-.8-.1-1.5-.2-1.9s-.3-.8-.7-1.1c-.5-.5-1.1-.8-1.9-.9v-2.9c3.3 0 5.8.3 7.4 1 1.8.8 3.3 2 4.4 3.7s1.6 3.7 1.6 6.2c0 2.7-.6 5-1.7 6.7s-2.6 3-4.6 3.8c-1.5.7-3.9 1-7 1m29.7 13.9h-11.4c-.6 0-1-.1-1.4-.4-.3-.2-.5-.6-.5-1 0-.7.3-1.2 1-1.4.5-.2.8-.3.9-.4q.15 0 .3-.3c.2-.3.3-.7.3-1.4v-26.6c0-.6-.1-1.1-.3-1.4q-.15-.3-.3-.3c-.15 0-.4-.2-.9-.4-.7-.2-1-.7-1-1.4 0-.4.2-.8.5-1s.8-.4 1.4-.4h12.3q1.05 0 1.5.3c.4.3.6.7.6 1.1q0 1.2-1.2 1.5c-.6.2-1 .3-1.1.3-.1.1-.2.2-.4.3-.2.3-.4.8-.4 1.5v31.4zm2 0v-3c.8-.2 1.4-.3 1.9-.5s.9-.5 1.3-.8c.7-.6 1.3-1.4 1.9-2.4s1-2.2 1.4-3.4c.3-1 .5-1.6.7-1.9s.5-.5 1-.5.8.2 1 .6c.1.2.1.6.1 1.2v10.8zm29.3-16.6v11.6c0 .7.1 1.2.4 1.5.1.2.3.3.4.3s.5.2 1.1.3q1.2.3 1.2 1.5c0 .5-.2.9-.7 1.2q-.45.3-1.5.3h-12.5q-1.05 0-1.5-.3c-.4-.3-.6-.7-.6-1.1q0-1.2 1.2-1.5c.6-.2 1-.3 1.1-.3s.2-.2.3-.3c.2-.3.4-.8.4-1.5v-9l-6.9-17.9c-.3-.7-.6-1.2-1.1-1.5-.4-.3-.7-.5-.8-.7s-.2-.4-.2-.7c0-.9.6-1.4 1.9-1.4h11.9c.6 0 1.1.1 1.3.2.4.3.6.7.6 1.1 0 .6-.2 1-.7 1.3l-.7.5c-.3.2-.4.5-.4.9s.1.9.3 1.3zm1-2.6-1.4-3.5 2.6-6.2c.2-.5.3-1.3.3-2.2 0-1-.5-1.8-1.6-2.2-.6-.2-.9-.5-1.1-.6q-.3-.3-.3-.9c0-.5.1-.8.4-1.1.2-.2.4-.3.7-.3.2-.1.7-.1 1.3-.1h6c1.1 0 1.7.5 1.7 1.5 0 .4-.1.6-.2.8q-.3.3-.9.6c-.8.4-1.4.8-1.7 1.2-.5.6-.9 1.2-1.2 1.9l-.6 1.4zm24.2-17.8v3.2c-1 .2-1.7.6-2.1 1.4-.5.8-.7 1.8-.7 3.3v23c0 .4.1.8.2 1.3.2.5.4.8.6 1.2.3.4.5.6.8.8s.7.3 1.2.3v3.2c-3.2 0-5.9-.9-8.2-2.7-2-1.6-3.6-3.7-4.6-6.4s-1.6-5.8-1.6-9.5c0-2.7.3-5.2 1-7.5s1.7-4.3 2.9-6c1.3-1.7 2.9-3.1 4.7-4.1s3.6-1.6 5.2-1.6zm2 3.3v-3.2c.8.1 1.4.3 1.9.5s1.4.5 2.7 1c.8.3 1.4.5 1.7.5.5 0 .8-.2 1.1-.7l.3-.6c.2-.4.6-.6 1.1-.6.4 0 .8.1 1 .4s.4.7.4 1.2v11c0 .7-.1 1.2-.4 1.5s-.6.5-1 .5-.7-.1-.9-.4-.4-.7-.6-1.3c-.3-1.4-.7-2.5-1-3.3-.7-1.7-1.5-3-2.4-4.1-.6-.7-1.2-1.3-1.8-1.6-.8-.5-1.4-.7-2.1-.8m0 34.4v-3.2c1.3-.1 2.6-.6 4-1.6.7-.5 1.4-1.2 2-2.1s1-1.8 1.3-2.8q.3-.9.6-1.2c.2-.2.5-.4.9-.4s.7.2 1 .5.4.7.4 1.2c0 .8-.3 1.8-.8 2.9-.6 1.1-1.3 2.2-2.2 3.1-1.1 1.2-2.2 2-3.3 2.6-1.2.6-2.5.9-3.9 1m27.6-.7h-11.5c-.6 0-1-.1-1.4-.4-.3-.2-.5-.6-.5-1 0-.7.3-1.2 1-1.4.5-.2.8-.3.9-.4q.15 0 .3-.3c.2-.3.3-.7.3-1.4v-26.6c0-.6-.1-1.1-.3-1.4q-.15-.3-.3-.3c-.15 0-.4-.2-.9-.4-.7-.2-1-.7-1-1.4 0-.4.2-.8.5-1s.8-.4 1.4-.4h12.1c1.2 0 1.7.5 1.7 1.4 0 .7-.3 1.2-.9 1.4l-.7.4c-.5.2-.7.8-.7 1.8v26.6c0 1 .2 1.6.7 1.8l.8.3c.6.2.9.7.9 1.4 0 .9-.6 1.4-1.7 1.4zm2.1-19.9h4v-11.6c0-1-.2-1.6-.7-1.8l-.8-.3c-.6-.2-.9-.7-.9-1.4 0-.9.6-1.4 1.8-1.4h12.1c1.2 0 1.8.5 1.8 1.4 0 .7-.3 1.2-1 1.4-.5.2-.8.3-.9.4q-.15 0-.3.3c-.2.3-.3.7-.3 1.4v26.5c0 1 .2 1.6.7 1.8l.8.3c.6.2 1 .7 1 1.5 0 .9-.6 1.4-1.8 1.4h-12.2c-1.1 0-1.7-.5-1.7-1.4q0-1.05.9-1.5l.8-.3c.5-.2.7-.8.7-1.8V571h-4zm29.9-9.6 1.2 5.5-4.3 17.1c-.1.5-.2 1-.2 1.4 0 1.1.5 1.9 1.4 2.4l.9.4c.5.3.8.7.8 1.3 0 .9-.6 1.3-1.8 1.3h-6.2c-.6 0-1.1-.1-1.4-.4s-.5-.6-.5-1.1.4-.9 1.1-1.3q1.05-.45 1.5-.9c.3-.3.6-.6.9-1 .5-.7.8-1.7 1.1-2.9zm1.7-6.8h9.8l6.8 31.2c.1.5.3 1 .4 1.5.1.3.5.6 1 .8q.6.3.9.6c.2.2.2.5.2.8 0 .9-.6 1.4-1.9 1.4H805c-.5 0-.9-.1-1.2-.4s-.4-.6-.4-1 .1-.6.2-.8.4-.4.9-.7c.3-.2.6-.4.7-.6s.2-.5.2-.8 0-.6-.1-.8l-.8-3.8h-6.8l.7-3.2h5.5l-4.5-21.6zm34.4 36.3h-11.5c-.6 0-1-.1-1.4-.4s-.5-.6-.5-1c0-.7.3-1.2 1-1.4.5-.2.8-.3.9-.4q.15 0 .3-.3c.2-.3.3-.7.3-1.4v-26.6c0-.6-.1-1.1-.3-1.4q-.15-.3-.3-.3c-.15 0-.4-.2-.9-.4-.6-.2-1-.7-1-1.4 0-.4.2-.8.5-1s.8-.4 1.4-.4H835c.6 0 1 .1 1.4.4s.5.6.5 1c0 .7-.3 1.2-1 1.4-.5.2-.8.3-.9.4q-.15 0-.3.3c-.2.3-.3.7-.3 1.4v26.6c0 .6.1 1.1.3 1.4q.15.3.3.3c.15 0 .4.2.9.4.6.2 1 .7 1 1.4 0 .4-.2.8-.5 1s-.8.4-1.4.4zm10.1-26.9 2.6 4.7v14.2c0 1.2.2 2.3.6 3.1s1 1.5 1.8 2l.7.5q.6.45.6 1.2c0 .4-.2.7-.5 1-.3.2-.8.3-1.6.3h-5.6c-1.5 0-2.2-.5-2.2-1.4 0-.3.1-.6.2-.8.2-.2.5-.4 1-.8 1.6-.9 2.3-2.6 2.3-5.1v-18.9zm10.2-9.4 13 24.5v11.7H861l-16.6-31c-.4-.7-.6-1.1-.9-1.4q-.3-.45-.9-.6l-.9-.4c-.2-.1-.4-.2-.6-.5s-.2-.5-.2-.8.1-.6.2-.8c.1-.3.3-.4.6-.5s1-.2 2.2-.2zm12.9 20.3-2.6-4.7v-7.3c0-1.5-.2-2.6-.6-3.4s-1.1-1.5-2.1-2c-.3-.2-.6-.4-.7-.6s-.2-.5-.2-.8c0-.5.1-.8.4-1s.7-.3 1.4-.3h6.1c.8 0 1.4.1 1.6.4.3.3.4.6.4 1s-.1.6-.2.8c-.2.2-.5.4-1.1.8-.9.5-1.5 1.2-1.9 2.2-.3.7-.5 1.7-.5 2.9zm20.1-20.3v36.2h-11.4c-.6 0-1-.1-1.4-.4s-.5-.6-.5-1c0-.7.3-1.2 1-1.4.5-.2.8-.3.9-.4q.15 0 .3-.3c.2-.3.3-.7.3-1.4v-26.6c0-.6-.1-1.1-.3-1.4q-.15-.3-.3-.3c-.15 0-.4-.2-.9-.4-.6-.2-1-.7-1-1.4 0-.4.2-.8.5-1s.8-.4 1.4-.4h11.4zm2 19.4v-3.1c.9-.5 1.6-1 2.1-1.6s.8-1.4 1-2.3c.1-.7.3-1.1.5-1.4s.5-.4.9-.4c.5 0 .9.2 1.1.7.1.2.2.8.2 1.6v10.1c0 .8-.1 1.4-.3 1.7s-.5.5-.9.5-.7-.1-.9-.4c-.2-.2-.4-.7-.5-1.2-.3-1.2-.7-2.2-1.2-2.8-.5-.8-1.1-1.2-2-1.4m.2-19.4h9.8v9.4q0 .75-.3 1.2c-.2.2-.5.4-.9.4s-.6-.1-.8-.2c-.2-.2-.3-.5-.5-1-.6-2.1-1.5-3.6-2.7-4.7s-2.7-1.7-4.6-1.9zm0 36.3v-2.9c1.1-.2 1.9-.4 2.6-.7q1.05-.45 2.1-1.5c.7-.7 1.3-1.3 1.7-2s.8-1.6 1.2-2.8q.3-.9.6-1.2c.2-.2.5-.3.8-.3.5 0 .8.1 1 .4q.3.45.3 1.5v9.4zm27.1-36.3v31.2c0 .7.1 1.2.4 1.5.1.2.3.3.4.3s.5.2 1.1.3q1.2.3 1.2 1.5c0 .5-.2.8-.6 1.1q-.45.3-1.5.3h-12.5c-.6 0-1-.1-1.4-.4-.3-.2-.5-.6-.5-1 0-.7.3-1.2 1-1.4.5-.2.8-.3.9-.4q.15 0 .3-.3c.2-.3.3-.7.3-1.4v-26.6c0-.6-.1-1.1-.3-1.4q-.15-.3-.3-.3c-.15 0-.4-.2-.9-.4-.6-.2-1-.7-1-1.4 0-.4.2-.8.5-1s.8-.4 1.4-.4H917zm7.5 18.5c1.5.2 2.6.5 3.4.8s1.5.7 2.2 1.2 1.2 1.2 1.6 2 .5 1.6.5 2.4v5.5c0 .6.2.8.5.8.1 0 .2 0 .3-.1s.2-.2.4-.5q.6-.9 1.2-.9c.3 0 .6.2.8.5.3.3.4.6.4 1 0 .5-.2 1.2-.7 2s-1.1 1.5-1.8 2.1-1.4 1-2.2 1.3-1.7.4-2.8.4c-2.1 0-3.8-.7-5-2s-1.8-3.2-1.8-5.6v-6.2c-.1-.7-.3-1.3-.7-1.8-.5-.6-1.1-1-2-1.1v-2.8c.9-.1 1.5-.4 1.9-.7.3-.3.5-.7.7-1.1.1-.4.2-1 .2-1.8v-7c0-1.1-.2-1.9-.6-2.5-.4-.5-1.1-1-2.2-1.3v-2.9h.6c1.8 0 3.3.1 4.6.2 1.9.2 3.6.9 5 2 2.1 1.6 3.2 4 3.2 7 0 2.5-.7 4.5-2.1 6.1-.6.7-1.3 1.2-2.1 1.6-.7.4-1.9.9-3.5 1.4" class="st1"/></svg>